SplineFontDB: 3.2
FontName: HershoMono-Regular
FullName: Hersho Mono Regular
FamilyName: Hersho Mono
Weight: Regular
Copyright: Copyright (c) 2023, Sim Domingo
UComments: "2023-9-4: Created with FontForge (http://fontforge.org)"
Version: 001.000
ItalicAngle: 0
UnderlinePosition: -83
UnderlineWidth: 41
Ascent: 833
Descent: 167
InvalidEm: 0
LayerCount: 2
Layer: 0 0 "Back" 1
Layer: 1 0 "Fore" 0
XUID: [1021 39 -546803219 6476244]
StyleMap: 0x0000
FSType: 0
OS2Version: 0
OS2_WeightWidthSlopeOnly: 0
OS2_UseTypoMetrics: 1
CreationTime: 1693767096
ModificationTime: 315532800
PfmFamily: 17
TTFWeight: 400
TTFWidth: 5
LineGap: 75
VLineGap: 0
OS2TypoAscent: 0
OS2TypoAOffset: 1
OS2TypoDescent: 0
OS2TypoDOffset: 1
OS2TypoLinegap: 75
OS2WinAscent: 0
OS2WinAOffset: 1
OS2WinDescent: 0
OS2WinDOffset: 1
HheadAscent: 0
HheadAOffset: 1
HheadDescent: 0
HheadDOffset: 1
OS2Vendor: 'PfEd'
MarkAttachClasses: 1
DEI: 91125
LangName: 1033
Encoding: Custom
UnicodeInterp: none
NameList: AGL For New Fonts
DisplaySize: -48
AntiAlias: 1
FitToEm: 0
WinInfo: 27 27 9
BeginPrivate: 0
EndPrivate
TeXData: 1 0 0 522190 261095 174063 489685 1048576 174063 783286 444596 497025 792723 393216 433062 380633 303038 157286 324010 404750 52429 2506097 1059062 262144
BeginChars: 267 263

StartChar: o
Encoding: 111 111 0
AltUni2: 0000ba.ffffffff.0
Width: 500
VWidth: 833
Flags: W
HStem: 0 108<198.318 301.665> 302 98<198.474 301.318>
VStem: 84 84<139.415 270.836> 332 84<140.235 270.84>
LayerCount: 2
Fore
SplineSet
84 204 m 4
 84 322 155 400 250 400 c 4
 345 400 416 321 416 204 c 4
 416 87 345 0 250 0 c 4
 156 0 84 86 84 204 c 4
332 204 m 4
 332 262 295 302 250 302 c 4
 204 302 168 261 168 204 c 4
 168 146 206 108 250 108 c 4
 293 108 332 145 332 204 c 4
EndSplineSet
Validated: 1
EndChar

StartChar: n
Encoding: 110 110 1
Width: 500
VWidth: 833
Flags: W
HStem: 0 21G<84 168 332 416> 0 21G<84 168 332 416> 326 76<181.865 316.477>
VStem: 84 84<0 287 382 402> 332 84<0 286>
LayerCount: 2
Fore
SplineSet
85 402 m 1xb8
 168 402 l 1
 168 382 l 1
 191 393 238 402 269 402 c 3
 299 402 415 377 415 292 c 2
 416 0 l 1
 332 0 l 5
 332 286 l 6
 332 286 313 326 249 326 c 3
 184 326 168 287 168 287 c 2
 168 0 l 1
 84 0 l 1
 84 135 84 269 85 402 c 1xb8
EndSplineSet
Validated: 1
EndChar

StartChar: h
Encoding: 104 104 2
Width: 500
VWidth: 833
Flags: W
HStem: 0 21G<84 168 332 416> 0 21G<84 168 332 416> 316 85<176.582 323.717>
VStem: 85 83<0 303.771 382 664> 332 84<0 304.43>
LayerCount: 2
Fore
SplineSet
85 664 m 5xb8
 168 664 l 5
 168 382 l 5
 192 393 231 401 262 401 c 7
 293 401 413 380 414 288 c 6
 416 0 l 5
 332 0 l 5
 333 274 l 6
 333 296 303 316 262 316 c 7
 220 316 168 308 168 274 c 6
 168 0 l 5
 84 0 l 5
 85 664 l 5xb8
EndSplineSet
Validated: 1
EndChar

StartChar: i
Encoding: 105 105 4
Width: 500
VWidth: 833
Flags: W
HStem: 1 83<289 416> 298 83<84 208> 437 113<193.875 278.559>
VStem: 181 110<449.381 537.386> 208 83<84 298>
LayerCount: 2
Fore
SplineSet
244 549 m 4xf0
 270 544 291 523 291 495 c 4
 291 463 267 437 235 437 c 4
 232 437 227 437 224 438 c 4
 201 442 181 460 181 488 c 4
 181 490 181 491 181 493 c 4
 183 523 204 550 234 550 c 4
 237 550 241 550 244 549 c 4xf0
84 298 m 1
 84 381 l 1
 249 381 l 2
 272 381 291 362 291 339 c 0
 290 151 289 96 289 84 c 1
 416 84 l 1
 416 1 l 1
 247 1 l 2
 224 1 205 19 205 42 c 0
 208 298 l 1xe8
 84 298 l 1
EndSplineSet
Validated: 1
EndChar

StartChar: j
Encoding: 106 106 5
Width: 500
VWidth: 833
Flags: W
HStem: -167 87<195.351 311.103> 298 84<267 330> 437 113<318.939 403.877>
VStem: 84 88<-57.2865 22> 267 145<298 376.183> 307 109<448.828 537.965> 331 82<-60.3299 298>
LayerCount: 2
Fore
SplineSet
370 549 m 0xf4
 397 544 416 521 416 493 c 0
 416 461 391 437 360 437 c 0
 357 437 352 437 349 438 c 0
 323 442 307 462 307 490 c 0
 307 492 307 493 307 495 c 0
 309 527 332 550 360 550 c 0
 363 550 367 550 370 549 c 0xf4
250 -167 m 3
 135 -167 86 -96 84 22 c 5
 172 22 l 5
 172 -26 181 -80 253 -80 c 3
 322 -80 331 -62 331 124 c 0xf2
 331 171 330 228 330 298 c 1
 267 298 l 1
 267 347 267 382 267 382 c 1
 365 381 388 381 388 381 c 0
 372 381 l 2
 394 381 412 361 412 339 c 0xf8
 412 264 413 201 413 146 c 0xf2
 413 -126 398 -167 250 -167 c 3
EndSplineSet
Validated: 1
EndChar

StartChar: s
Encoding: 115 115 6
Width: 500
VWidth: 833
Flags: W
HStem: 3 64<190.998 303.652> 162 71<202.062 313.849> 326 73<202.245 301.124>
VStem: 84 94<81.4336 119> 98 95<242.355 316.829> 321 94<85.2693 153.597 264 304.65>
LayerCount: 2
Fore
SplineSet
244 233 m 3xec
 288 233 415 204 415 122 c 3
 415 54 349 3 244 3 c 3
 170 3 84 54 84 119 c 0
 178 119 l 3xf4
 178 85 217 67 244 67 c 3
 282 67 321 91 321 122 c 3
 321 150 295 162 244 162 c 3
 176 162 98 228 98 277 c 3
 98 343 172 399 244 399 c 3
 322 399 416 349 416 264 c 16
 321 264 l 1
 321 309 270 326 244 326 c 3
 212 326 193 303 193 278 c 3
 193 256 213 233 244 233 c 3xec
EndSplineSet
Validated: 1
EndChar

StartChar: v
Encoding: 118 118 7
Width: 500
VWidth: 833
Flags: W
HStem: 1 21G<201.815 295.382> 1 21G<201.815 295.382> 382 20G<84 172.795 327.929 416>
VStem: 84 332
LayerCount: 2
Fore
SplineSet
208 1 m 1xb0
 84 402 l 1
 167 402 l 1
 249 119 l 1
 334 399 l 1
 416 399 l 1
 289 1 l 1
 208 1 l 1xb0
EndSplineSet
Validated: 1
EndChar

StartChar: w
Encoding: 119 119 8
Width: 500
VWidth: 833
Flags: W
HStem: 1 21G<99.272 208.5 301.5 405.476> 1 21G<99.272 208.5 301.5 405.476> 378 20G<29 123.517 212.804 287.336 379.413 471>
VStem: 29 92<360.446 398> 382 89<357.725 398>
LayerCount: 2
Fore
SplineSet
29 398 m 5xb8
 121 398 l 5
 157 112 l 5
 217 398 l 5
 283 398 l 5
 345 112 l 5
 382 398 l 5
 471 398 l 5
 402 1 l 5
 305 1 l 5
 298 38 258 217 251 252 c 5
 245 217 212 38 205 1 c 5
 103 1 l 5
 29 398 l 5xb8
EndSplineSet
Validated: 1
EndChar

StartChar: d
Encoding: 100 100 9
Width: 500
VWidth: 833
Flags: W
HStem: 0 108<197.308 301.778> 302 98<196.937 301.925> 648 20G<334 416>
VStem: 84 84<137.209 270.976> 334 82<2 28 142.706 267.294 375 666>
LayerCount: 2
Fore
SplineSet
331 205 m 0
 331 260 296 302 249 302 c 4
 201 302 168 260 168 205 c 0
 168 150 201 108 249 108 c 4
 296 108 331 150 331 205 c 0
84 204 m 0
 84 319 152 400 249 400 c 4
 281 400 309 392 334 375 c 1
 334 666 l 1
 416 668 l 1
 416 2 l 1
 334 0 l 1
 334 28 l 1
 309 10 280 0 249 0 c 4
 154 0 84 87 84 204 c 0
EndSplineSet
Validated: 1
EndChar

StartChar: p
Encoding: 112 112 10
Width: 500
VWidth: 833
Flags: W
HStem: -1 99<197.598 302.313> 291 108<197.745 301.941>
VStem: 84 82<-167 24 130.37 258.06 372 398> 332 84<128.262 259.374>
LayerCount: 2
Fore
SplineSet
169 194 m 0
 169 139 203 98 250 98 c 4
 298 98 332 139 332 194 c 4
 332 249 298 291 250 291 c 4
 203 291 169 249 169 194 c 0
416 195 m 4
 416 80 347 -1 250 -1 c 7
 218 -1 191 7 166 24 c 1
 166 -167 l 1
 84 -168 l 1
 84 398 l 1
 166 399 l 1
 166 372 l 1
 191 390 219 399 250 399 c 7
 345 399 416 312 416 195 c 4
EndSplineSet
Validated: 1
EndChar

StartChar: b
Encoding: 98 98 11
Width: 500
VWidth: 833
Flags: W
HStem: 0 108<197.745 301.941> 302 98<197.598 302.313> 648 20G<84 166>
VStem: 84 82<2 28 140.94 269.06 375 666> 332 84<139.626 270.976>
LayerCount: 2
Fore
SplineSet
169 205 m 4
 169 150 203 108 250 108 c 4
 298 108 332 150 332 205 c 4
 332 260 298 302 250 302 c 4
 203 302 169 260 169 205 c 4
416 204 m 4
 416 87 345 0 250 0 c 4
 219 0 191 10 166 28 c 5
 166 0 l 5
 84 2 l 5
 84 668 l 5
 166 666 l 5
 166 375 l 5
 191 392 218 400 250 400 c 4
 347 400 416 319 416 204 c 4
EndSplineSet
Validated: 1
EndChar

StartChar: q
Encoding: 113 113 12
Width: 500
VWidth: 833
Flags: W
HStem: 1 98<197.687 302.402> 292 109<198.059 302.255>
VStem: 84 84<130.024 261.136> 334 82<-165 26 131.94 259.63 373 399>
LayerCount: 2
Fore
SplineSet
331 196 m 0
 331 251 297 292 250 292 c 0
 202 292 168 251 168 196 c 0
 168 141 202 99 250 99 c 0
 297 99 331 141 331 196 c 0
84 197 m 0
 84 314 155 401 250 401 c 3
 281 401 309 391 334 373 c 1
 334 401 l 1
 416 399 l 1
 416 -167 l 1
 334 -165 l 1
 334 26 l 1
 309 9 282 1 250 1 c 3
 153 1 84 82 84 197 c 0
EndSplineSet
Validated: 1
EndChar

StartChar: g
Encoding: 103 103 13
Width: 500
VWidth: 833
Flags: W
HStem: -168 86<195.252 317.404> -20 20G<84 172> -20 20G<84 172> 0 108<201.792 301.337> 302 98<194.443 295.927>
VStem: 84 84<-53.2409 0 143.539 273.334> 329 86<-66.6997 23 137.058 267.294 378 398.939>
LayerCount: 2
Fore
SplineSet
326 212 m 7x9e
 326 257 289 302 250 302 c 3
 203 302 168 267 168 212 c 7
 168 157 203 108 250 108 c 3
 315 108 326 171 326 212 c 7x9e
84 212 m 7
 84 327 153 400 250 400 c 3
 279 400 307 392 331 378 c 1
 331 399 l 1
 416 399 l 1
 416 399 415 316 415 212 c 7
 415 194 415 176 415 159 c 0
 415 -148 411 -168 243 -168 c 7
 120 -168 84 -40 84 0 c 0
 172 0 l 3xce
 172 -53 206 -82 249 -82 c 3
 291 -82 329 -70 329 -32 c 2
 330 23 l 1
 306 8 278 0 250 0 c 0
 155 0 84 95 84 212 c 7
EndSplineSet
Validated: 1
EndChar

StartChar: e
Encoding: 101 101 14
Width: 500
VWidth: 833
Flags: W
HStem: 0 91<207.129 348.705> 185 76<175 325> 338 92<203.458 301.753>
VStem: 84 91<128.641 185 261 308.386> 325 91<261 313.608>
LayerCount: 2
Fore
SplineSet
325 261 m 7
 325 303 291 338 250 338 c 7
 215 338 175 298 175 261 c 4
 325 261 l 7
250 91 m 7
 279 91 323 101 355 115 c 6
 399 43 l 5
 365 18 303 0 250 0 c 7
 140 0 84 80 84 238 c 7
 84 344 159 430 250 430 c 7
 360 430 416 347 416 185 c 5
 175 185 l 5
 175 141 214 91 250 91 c 7
EndSplineSet
Validated: 1
EndChar

StartChar: c
Encoding: 99 99 15
Width: 500
VWidth: 833
Flags: W
HStem: 0 108<205.961 318.989> 302 98<206.366 319.452>
VStem: 84 89<141.111 267.604>
LayerCount: 2
Fore
SplineSet
333 266 m 1025
416 310 m 1025
411 87 m 1
 379 34 326 0 262 0 c 0
 160 0 84 86 84 204 c 0
 84 322 160 400 262 400 c 0
 330 400 385 367 416 310 c 9
 416 310 353 278 333 266 c 1
 317 288 290 302 262 302 c 0
 212 302 173 261 173 204 c 0
 173 146 214 108 262 108 c 0
 286 108 309 117 325 135 c 1
 363 115 370 114 411 87 c 1
EndSplineSet
Validated: 1
EndChar

StartChar: a
Encoding: 97 97 16
AltUni2: 0000aa.ffffffff.0
Width: 500
VWidth: 833
Flags: W
HStem: 0 65<187.134 310.032> 181 59<185.362 315.68> 312 82<188.275 305.022>
VStem: 84 84<84.374 163.928> 331 85<0 14 86.5239 122 122.104 164.569 227 287.336>
LayerCount: 2
Fore
SplineSet
250 181 m 0
 197 181 168 154 168 124 c 0
 168 88 208 65 250 65 c 0
 295 65 329 93 329 127 c 0
 329 160 297 181 250 181 c 0
415 282 m 0
 416 266 416 122 416 122 c 1
 416 0 l 1
 331 0 l 1
 331 14 l 1
 307 5 279 0 250 0 c 0
 155 0 84 52 84 122 c 0
 84 191 153 240 249 240 c 0
 280 240 307 235 331 227 c 1
 330 266 l 1
 303 301 275 312 250 312 c 0
 204 312 167 274 165 274 c 2
 132 302 l 1
 112 318 l 1
 112 327 180 393 254 394 c 2
 255 394 l 2
 323 394 413 339 415 282 c 0
EndSplineSet
Validated: 1
EndChar

StartChar: x
Encoding: 120 120 17
Width: 500
VWidth: 833
Flags: W
HStem: 0 23G<84 178.549 321.857 416> 382 20G<84 178.549 321.857 416>
VStem: 84 332
LayerCount: 2
Fore
SplineSet
207 201 m 1
 84 402 l 1
 167 402 l 1
 249 260 l 1
 334 400 l 1
 416 400 l 1
 289 201 l 1
 416 2 l 1
 334 2 l 1
 249 142 l 1
 167 0 l 1
 84 0 l 1
 207 201 l 1
EndSplineSet
Validated: 1
EndChar

StartChar: y
Encoding: 121 121 18
Width: 500
VWidth: 833
Flags: W
HStem: 382 20G<84 172.795 327.929 416>
VStem: 84 332
LayerCount: 2
Fore
SplineSet
208 5 m 5
 84 402 l 1
 167 402 l 1
 249 119 l 1
 334 399 l 1
 416 399 l 1
 241 -167 l 1
 159 -167 l 1
 208 5 l 5
EndSplineSet
Validated: 1
EndChar

StartChar: u
Encoding: 117 117 19
Width: 500
VWidth: 833
Flags: W
HStem: 0 77<183.523 318.135> 382 20G<84 168 332 416>
VStem: 85 83<117 402> 332 83<0 21 116 402>
LayerCount: 2
Fore
SplineSet
415 0 m 5
 332 0 l 5
 332 21 l 5
 309 10 262 0 231 0 c 7
 201 0 85 26 85 111 c 6
 84 402 l 5
 168 402 l 5
 168 117 l 6
 168 117 187 77 251 77 c 7
 316 77 332 116 332 116 c 6
 332 402 l 5
 416 402 l 5
 416 267 416 133 415 0 c 5
EndSplineSet
Validated: 1
EndChar

StartChar: l
Encoding: 108 108 20
Width: 500
VWidth: 833
Flags: W
HStem: 658 20G<168.282 268.5>
VStem: 213 84<73 595>
LayerCount: 2
Fore
SplineSet
416 112 m 1
 416 29 l 1
 255 -10 l 1
 232 -10 213 9 213 32 c 0
 213 58 213 83 213 108 c 2
 215 595 l 1
 84 556 l 1
 84 639 l 1
 257 678 l 1
 280 678 298 660 298 637 c 0
 298 611 298 586 298 561 c 2
 297 73 l 1
 416 112 l 1
EndSplineSet
Validated: 1
EndChar

StartChar: r
Encoding: 114 114 21
Width: 500
VWidth: 833
Flags: W
HStem: 0 21G<84 168> 0 21G<84 168> 322 80<221.319 325.821>
VStem: 84 84<0 233.941 339 402>
LayerCount: 2
Fore
SplineSet
84 402 m 5xb0
 168 402 l 5
 168 339 l 5
 168 339 206 402 273 402 c 4
 344 402 416 314 416 314 c 5
 359 272 l 5
 359 270 l 5
 358 270 318 322 273 322 c 4
 211 322 169 234 169 234 c 5
 169 234 168 153 168 0 c 5
 84 0 l 5
 84 135 84 269 84 402 c 5xb0
EndSplineSet
Validated: 1
EndChar

StartChar: m
Encoding: 109 109 22
Width: 500
VWidth: 833
Flags: HMW
LayerCount: 2
Fore
SplineSet
84 397 m 1
 140 397 l 1
 140 373 l 1
 140 373 148 398 184 398 c 0
 234 398 252 351 252 351 c 1
 252 351 281 397 329 397 c 0
 386 397 416 332 416 298 c 2
 416 0 l 1
 355 0 l 1
 355 292 l 1
 355 292 352 324 316 324 c 0
 280 324 279 292 279 292 c 1
 279 0 l 1
 218 0 l 1
 218 292 l 2
 218 294 217 324 183 324 c 0
 147 324 146 292 146 292 c 1
 146 0 l 1
 84 0 l 1
 84 397 l 1
EndSplineSet
Validated: 1
EndChar

StartChar: t
Encoding: 116 116 23
Width: 500
VWidth: 833
Flags: W
HStem: 1 77<288.461 415.955> 294 98<84 205 288 411> 646 20G<205 288>
VStem: 205 83<79.9261 294 392 666>
LayerCount: 2
Fore
SplineSet
322 78 m 15
 354 78 416 76 416 76 c 5
 416 0 l 5
 384 0 390 1 286 1 c 4
 214 1 204 54 204 122 c 0
 204 144 205 168 205 191 c 6
 205 294 l 5
 84 294 l 5
 84 392 l 5
 205 392 l 5
 205 666 l 5
 288 666 l 5
 288 392 l 5
 411 392 l 5
 411 294 l 5
 288 294 l 5
 288 294 288 256 288 191 c 31
 288 189 288 188 288 186 c 7
 288 160 287 140 287 125 c 0
 287 88 291 78 322 78 c 15
EndSplineSet
Validated: 1
EndChar

StartChar: f
Encoding: 102 102 24
Width: 500
VWidth: 833
Flags: W
HStem: 312 85<84 140 222 275> 582 84<235.976 318.127>
VStem: 140 82<-6 312 397 569.517> 332 84<467 566.678>
LayerCount: 2
Fore
SplineSet
416 467 m 1
 332 466 l 1
 332 470 332 474 332 478 c 0
 332 529 330 582 275 582 c 0
 223 582 222 525 222 474 c 0
 222 472 222 471 222 469 c 2
 222 397 l 1
 275 397 l 1
 275 312 l 5
 222 312 l 5
 222 -6 l 1
 140 -6 l 1
 140 312 l 5
 84 312 l 5
 84 397 l 1
 140 397 l 1
 140 469 l 2
 140 565 177 666 274 666 c 0
 378 666 416 569 416 467 c 1
EndSplineSet
Validated: 1
EndChar

StartChar: k
Encoding: 107 107 25
Width: 500
VWidth: 833
Flags: W
HStem: 0 21G<84 167 322.574 416> 0 21G<84 167 322.574 416> 647 20G<84.97 168>
VStem: 84 84<0 131 229 667>
LayerCount: 2
Fore
SplineSet
85 667 m 1xb0
 168 667 l 1
 168 229 l 1
 318 373 l 1
 416 373 l 1
 298 242 l 1
 416 0 l 1
 333 0 l 1
 235 188 l 5
 166 131 l 1
 167 0 l 1
 84 0 l 1
 85 667 l 1xb0
EndSplineSet
Validated: 1
EndChar

StartChar: z
Encoding: 122 122 26
Width: 500
VWidth: 833
Flags: W
HStem: 0 76<201 416> 320 81<84 315>
VStem: 84 332<0 76 320 401>
LayerCount: 2
Fore
SplineSet
84 401 m 1
 416 401 l 1
 416 320 l 1
 201 76 l 1
 416 76 l 1
 416 0 l 1
 84 0 l 1
 84 76 l 1
 315 320 l 1
 84 320 l 1
 84 401 l 1
EndSplineSet
Validated: 1
EndChar

StartChar: H
Encoding: 72 72 27
Width: 500
VWidth: 833
Flags: W
HStem: 0 21G<84 170 330 416> 0 21G<84 170 330 416> 317 65<170 330> 646 20G<84 170 330 416>
VStem: 84 86<0 317 382 666> 330 86<0 317 382 666>
LayerCount: 2
Fore
SplineSet
84 666 m 1xbc
 170 666 l 1
 170 382 l 1
 330 382 l 5
 330 666 l 5
 416 666 l 5
 416 0 l 5
 330 0 l 5
 330 317 l 5
 170 317 l 1
 170 0 l 1
 84 0 l 1
 84 666 l 1xbc
EndSplineSet
Validated: 1
EndChar

StartChar: O
Encoding: 79 79 28
Width: 500
VWidth: 833
Flags: W
HStem: 0 97<194.656 301.178> 578 88<205.22 299.829>
VStem: 84 85<151.123 508.047> 332 84<150.862 523.257>
LayerCount: 2
Fore
SplineSet
84 343 m 24
 84 531 153 666 249 666 c 3
 356 666 416 549 416 343 c 24
 416 125 355 0 249 0 c 0
 143 0 84 122 84 343 c 24
332 343 m 27
 332 521 316 578 249 578 c 3
 190 578 169 510 169 348 c 0
 169 346 169 345 169 343 c 0
 169 339 169 336 169 332 c 0
 169 135 180 97 249 97 c 4
 319 97 332 145 332 343 c 27
EndSplineSet
Validated: 1
EndChar

StartChar: A
Encoding: 65 65 29
Width: 500
VWidth: 833
Flags: W
HStem: 0 21G<84 172.396 318.472 416> 0 21G<84 172.396 318.472 416> 159 68<203 276> 646 20G<186.817 280.204>
VStem: 190 86<632.7 666>
LayerCount: 2
Fore
SplineSet
238 568 m 5x38
 203 227 l 5
 276 227 l 5
 238 568 l 5x38
190 666 m 5
 276 666 l 5
 416 0 l 5
 323 0 l 5
 287 159 l 5
 196 159 l 5
 169 0 l 5
 84 0 l 5xb8
 190 666 l 5
EndSplineSet
Validated: 1
EndChar

StartChar: E
Encoding: 69 69 30
Width: 500
VWidth: 833
Flags: W
HStem: 0 84<170 416> 307 75<170 309> 587 79<170 416>
VStem: 84 86<84 307 382 587>
LayerCount: 2
Fore
SplineSet
416 667 m 1
 416 588 l 1
 170 587 l 1
 170 382 l 1
 310 382 l 1
 309 307 l 1
 170 307 l 1
 170 84 l 1
 416 85 l 1
 416 0 l 1
 84 0 l 1
 84 666 l 1
 416 667 l 1
EndSplineSet
Validated: 1
EndChar

StartChar: S
Encoding: 83 83 31
Width: 500
VWidth: 833
Flags: W
HStem: 0 97<219.506 309.346> 587 80<191.981 282.414>
VStem: 84 91<465.922 569.707> 327 89<111.583 214.122>
LayerCount: 2
Fore
SplineSet
408 489 m 5
 318 489 l 5
 318 489 300 587 239 587 c 4
 211 587 175 567 175 521 c 7
 175 403 416 367 416 190 c 4
 416 121 379 0 259 0 c 4
 106 0 91 198 91 198 c 5
 189 198 l 5
 189 198 196 97 267 97 c 0
 268 97 267 97 268 97 c 4
 320 98 327 150 327 177 c 0
 327 187 326 192 326 192 c 5
 326 286 84 342 84 501 c 4
 84 590 161 667 248 667 c 4
 379 667 408 489 408 489 c 5
EndSplineSet
Validated: 1
EndChar

StartChar: I
Encoding: 73 73 32
Width: 500
VWidth: 833
Flags: W
HStem: 1 77<84 207 297 416> 591 77<84 207 297 416>
VStem: 207 90<78 591>
LayerCount: 2
Fore
SplineSet
84 668 m 5
 416 668 l 5
 416 591 l 5
 297 591 l 5
 297 78 l 5
 416 78 l 5
 416 1 l 5
 84 1 l 5
 84 78 l 5
 207 78 l 5
 207 591 l 5
 84 591 l 5
 84 668 l 5
EndSplineSet
Validated: 1
EndChar

StartChar: N
Encoding: 78 78 33
Width: 500
VWidth: 833
Flags: W
HStem: 0 21G<84 171 323.117 416> 0 21G<84 171 323.117 416> 646 20G<84 178.051 330 416>
VStem: 84 87<0 462> 330 86<215 666>
LayerCount: 2
Fore
SplineSet
84 666 m 5xb8
 171 666 l 5
 330 215 l 5
 330 666 l 5
 416 666 l 5
 416 0 l 5
 330 0 l 5
 171 462 l 5
 171 0 l 5
 84 0 l 5
 84 666 l 5xb8
EndSplineSet
Validated: 1
EndChar

StartChar: L
Encoding: 76 76 34
Width: 500
VWidth: 833
Flags: W
HStem: 0 84<170 416> 647 20G<84 170>
VStem: 84 86<84 666>
LayerCount: 2
Fore
SplineSet
170 667 m 1
 170 84 l 1
 416 85 l 1
 416 0 l 1
 84 0 l 1
 84 666 l 1
 170 667 l 1
EndSplineSet
Validated: 1
EndChar

StartChar: Z
Encoding: 90 90 35
Width: 500
VWidth: 833
Flags: W
HStem: 0 87<178 416> 582 85<84 322>
VStem: 84 332<0 87 582 667>
LayerCount: 2
Fore
SplineSet
84 0 m 5
 84 87 l 5
 322 582 l 5
 84 582 l 5
 84 667 l 5
 416 667 l 5
 416 582 l 5
 178 87 l 5
 416 87 l 5
 416 0 l 5
 84 0 l 5
EndSplineSet
Validated: 1
EndChar

StartChar: V
Encoding: 86 86 36
Width: 500
VWidth: 833
Flags: W
HStem: 1 21G<204.276 292.814> 1 21G<204.276 292.814> 647 20G<84 169.993 330.898 416>
VStem: 84 83<629.403 667> 334 82<630.291 667>
LayerCount: 2
Fore
SplineSet
208 1 m 5xb8
 84 667 l 5
 167 667 l 5
 249 119 l 5
 334 667 l 5
 416 667 l 5
 289 1 l 5
 208 1 l 5xb8
EndSplineSet
Validated: 1
EndChar

StartChar: P
Encoding: 80 80 37
Width: 500
VWidth: 833
Flags: W
HStem: 0 21G<84 170> 0 21G<84 170> 307 70<172 294.711> 582 83<172 301.02>
VStem: 84 86<0 307 377 582> 338 78<419.753 543.871>
LayerCount: 2
Fore
SplineSet
172 582 m 0x3c
 172 377 l 19
 190 377 201 377 243 377 c 7
 291 377 338 429 338 485 c 7
 338 537 294 582 243 582 c 7
 205 582 207 582 172 582 c 0x3c
282 307 m 15
 186 307 170 307 170 307 c 1
 170 0 l 1
 84 0 l 1xbc
 84 665 l 1
 84 665 153 665 282 665 c 23
 350 665 416 576 416 485 c 7
 416 396 350 307 282 307 c 15
EndSplineSet
Validated: 1
EndChar

StartChar: T
Encoding: 84 84 38
Width: 500
VWidth: 833
Flags: W
HStem: 1 21G<207 297> 1 21G<207 297> 591 77<84 207 297 416>
VStem: 207 90<1 591>
LayerCount: 2
Fore
SplineSet
84 668 m 1xb0
 416 668 l 1
 416 591 l 1
 297 591 l 1
 297 394 297 198 297 1 c 1
 207 1 l 1
 207 591 l 1
 84 591 l 1
 84 668 l 1xb0
EndSplineSet
Validated: 1
EndChar

StartChar: M
Encoding: 77 77 39
Width: 500
VWidth: 833
Flags: W
HStem: 0 21G<84 170 330 416> 0 21G<84 170 330 416> 647 20G<84 175.835 323.249 416>
VStem: 84 86<0 468> 330 86<0 468>
LayerCount: 2
Fore
SplineSet
84 666 m 1xb8
 169 667 l 1
 250 430 l 1
 330 667 l 1
 416 666 l 1
 416 0 l 1
 330 0 l 1
 330 468 l 5
 251 268 l 1
 170 468 l 5
 170 0 l 1
 84 0 l 1
 84 666 l 1xb8
EndSplineSet
Validated: 1
EndChar

StartChar: F
Encoding: 70 70 40
Width: 500
VWidth: 833
Flags: W
HStem: 0 21G<84 170> 0 21G<84 170> 307 75<170 309> 587 79<170 416>
VStem: 84 86<0 307 382 587>
LayerCount: 2
Fore
SplineSet
416 667 m 5xb8
 416 588 l 5
 170 587 l 5
 170 382 l 5
 310 382 l 5
 309 307 l 5
 170 307 l 5
 170 0 l 5
 84 0 l 5
 84 666 l 5
 416 667 l 5xb8
EndSplineSet
Validated: 1
EndChar

StartChar: X
Encoding: 88 88 41
Width: 500
VWidth: 833
Flags: W
HStem: 0 21G<84 176.736 323.411 416> 0 21G<84 176.736 323.411 416> 647 20G<84 174.21 326.876 416>
VStem: 84 332
LayerCount: 2
Fore
SplineSet
212 352 m 1xb0
 84 667 l 1
 167 667 l 1
 251 434 l 1
 334 667 l 1
 416 667 l 1
 285 353 l 5
 416 0 l 1
 330 0 l 1
 245 258 l 1
 171 0 l 1
 84 0 l 1
 212 352 l 1xb0
EndSplineSet
Validated: 1
EndChar

StartChar: Y
Encoding: 89 89 42
Width: 500
VWidth: 833
Flags: W
HStem: 0 21G<210 288> 0 21G<210 288> 647 20G<84 172.985 327.796 416>
VStem: 210 78<0 334>
LayerCount: 2
Fore
SplineSet
210 334 m 5xb0
 84 667 l 5
 167 667 l 5
 249 393 l 5
 334 667 l 5
 416 667 l 5
 288 334 l 5
 288 0 l 5
 210 0 l 5
 210 334 l 5xb0
EndSplineSet
Validated: 1
EndChar

StartChar: Q
Encoding: 81 81 43
Width: 500
VWidth: 833
Flags: W
HStem: 0 97<193.986 272.584> 578 88<207.118 301.798>
VStem: 84 85<144.057 500.02> 332 84<168.518 525.173>
LayerCount: 2
Fore
SplineSet
332 331 m 0
 332 527 314 578 256 578 c 0
 191 578 169 514 169 346 c 0
 169 346 169 345 169 342 c 0
 169 339 169 336 169 336 c 0
 169 132 181 97 248 97 c 0
 258 97 266 97 273 99 c 1
 196 232 l 1
 284 233 l 1
 322 166 l 1
 330 201 332 253 332 331 c 0
84 318 m 0
 84 530 153 666 258 666 c 0
 356 666 416 550 416 340 c 0
 416 232 400 142 369 83 c 1
 416 0 l 1
 331 0 l 1
 318 22 l 1
 298 8 275 0 249 0 c 0
 143 0 84 122 84 318 c 0
EndSplineSet
Validated: 1
EndChar

StartChar: U
Encoding: 85 85 44
Width: 500
VWidth: 833
Flags: W
HStem: 0 97<197.671 302.339> 647 20G<84 165 335 416>
VStem: 84 78<142.663 667> 340 76<142.663 668>
LayerCount: 2
Fore
SplineSet
84 667 m 22
 165 667 l 5
 163 567 162 432 162 342 c 4
 162 150 182 97 251 97 c 4
 319 97 340 154 340 342 c 4
 340 466 335 541 335 668 c 5
 416 668 l 5
 416 517 416 281 416 281 c 6
 416 73 372 0 249 0 c 4
 127 0 84 73 84 281 c 6
 84 667 l 22
EndSplineSet
Validated: 1
EndChar

StartChar: R
Encoding: 82 82 45
Width: 500
VWidth: 833
Flags: W
HStem: 0 21G<84 170 323.094 416> 0 21G<84 170 323.094 416> 307 70<172 224> 582 83<172 300.97>
VStem: 84 86<0 307 377 582> 338 76<420.29 543.871>
LayerCount: 2
Fore
SplineSet
172 582 m 5x3c
 172 377 l 5
 190 377 201 377 243 377 c 4
 291 377 338 429 338 485 c 4
 338 537 294 582 243 582 c 4
 205 582 207 582 172 582 c 5x3c
224 307 m 5
 170 307 l 5
 170 0 l 5
 84 0 l 5
 84 665 l 5
 84 665 153 665 282 665 c 4
 350 665 414 576 414 485 c 4
 414 407 364 330 306 312 c 5
 416 0 l 5
 330 0 l 5xbc
 224 307 l 5
EndSplineSet
Validated: 1
EndChar

StartChar: D
Encoding: 68 68 46
Width: 500
VWidth: 833
Flags: W
HStem: 0 73<172 252.781> 579 86<172 256.691>
VStem: 84 88<73 578> 338 78<202.979 460.875>
LayerCount: 2
Fore
SplineSet
172 578 m 4
 172 73 l 23
 190 73 171 73 213 73 c 7
 261 73 338 191 338 332 c 7
 338 480 264 579 213 579 c 7
 175 579 207 578 172 578 c 4
252 0 m 14
 84 0 l 5
 84 665 l 5
 84 665 123 665 252 665 c 23
 320 665 416 516 416 332 c 7
 416 164 320 0 252 0 c 14
EndSplineSet
Validated: 1
EndChar

StartChar: K
Encoding: 75 75 47
Width: 500
VWidth: 833
Flags: W
HStem: 0 21G<84 171 310.653 414> 0 21G<84 171 310.653 414> 647 20G<84 171 310.951 416>
VStem: 84 87<0 202 461 667>
LayerCount: 2
Fore
SplineSet
171 202 m 5xb0
 171 0 l 1
 84 0 l 1
 84 667 l 1
 171 667 l 1
 171 461 l 1
 326 667 l 1
 416 667 l 1
 171 333 l 1
 414 0 l 1
 326 0 l 1
 171 202 l 5xb0
EndSplineSet
Validated: 1
EndChar

StartChar: B
Encoding: 66 66 48
Width: 500
VWidth: 833
Flags: W
HStem: 0 70<171 292.353> 276 101<172 296.017> 582 83<172 300.858>
VStem: 84 87<70 275 377 582> 336 78<112.753 239.475 417.6 546.354>
LayerCount: 2
Fore
SplineSet
345 332 m 5
 385 299 414 239 414 178 c 4
 414 89 370 0 280 0 c 6
 84 0 l 5
 84 665 l 5
 84 665 153 665 282 665 c 4
 365 665 416 572 416 484 c 4
 416 424 386 364 345 332 c 5
172 582 m 5
 172 377 l 5
 190 377 201 377 243 377 c 4
 291 377 338 428 338 484 c 4
 338 536 294 582 243 582 c 4
 205 582 207 582 172 582 c 5
171 275 m 5
 171 70 l 5
 189 70 200 70 242 70 c 4
 290 70 336 122 336 178 c 4
 336 230 293 276 242 276 c 4
 204 276 206 275 171 275 c 5
EndSplineSet
Validated: 1
EndChar

StartChar: C
Encoding: 67 67 49
Width: 500
VWidth: 833
Flags: W
HStem: 0 98<207.106 321.047> 578 88<207.163 315.422>
VStem: 84 85<149.693 507.191> 332 84<110.626 190 490 561.649>
LayerCount: 2
Fore
SplineSet
414 490 m 4
 329 468 l 4
 329 562 319 578 252 578 c 4
 191 578 169 513 169 332 c 7
 169 162 192 98 252 98 c 7
 327 98 332 106 332 212 c 4
 416 190 l 4
 416 50 372 0 250 0 c 4
 144 0 84 123 84 343 c 4
 84 529 155 666 252 666 c 4
 368 666 414 615 414 490 c 4
EndSplineSet
Validated: 1
EndChar

StartChar: G
Encoding: 71 71 50
Width: 500
VWidth: 833
Flags: W
HStem: 0 98<206.28 300.697> 257 65<252 336> 578 88<202.454 313.236>
VStem: 84 85<148.598 520.5> 328 84<469 565.377> 336 80<143.021 257>
LayerCount: 2
Fore
SplineSet
412 469 m 5xf8
 328 468 l 5xf8
 328 562 317 578 250 578 c 4
 189 578 169 523 169 342 c 0
 169 172 190 98 250 98 c 4
 319 98 334 174 336 257 c 5
 252 257 l 5
 252 322 l 5
 416 322 l 7xf4
 416 176 390 0 248 0 c 4
 142 0 84 123 84 343 c 0
 84 529 139 665 250 666 c 4
 251 666 251 666 252 666 c 0
 366 666 412 593 412 469 c 5xf8
EndSplineSet
Validated: 1
EndChar

StartChar: J
Encoding: 74 74 51
Width: 500
VWidth: 833
Flags: W
HStem: 0 97<197.515 302.339> 648 20G<335 416>
VStem: 84 81<133.805 210> 340 76<142.663 668>
LayerCount: 2
Fore
SplineSet
84 210 m 9
 165 210 l 1
 175 124 202 97 251 97 c 4
 319 97 340 154 340 342 c 4
 340 466 335 541 335 668 c 5
 416 668 l 5
 416 517 416 281 416 281 c 6
 416 73 372 0 249 0 c 4
 142 0 94 57 84 210 c 9
EndSplineSet
Validated: 1
EndChar

StartChar: W
Encoding: 87 87 52
Width: 500
VWidth: 833
Flags: W
HStem: 1 21G<112.129 197.989 294.468 387> 1 21G<112.129 197.989 294.468 387> 647 20G<84 176.263 329.125 416>
VStem: 84 92<506.241 667> 330 86<507.05 667>
LayerCount: 2
Fore
SplineSet
113 1 m 1xb8
 84 667 l 1
 176 667 l 1
 182 210 l 1
 248 335 l 1
 310 210 l 1
 330 667 l 1
 416 667 l 1
 387 1 l 1
 300 0 l 1
 248 188 l 1
 192 1 l 1
 113 1 l 1xb8
EndSplineSet
Validated: 1
EndChar

StartChar: parenleft
Encoding: 40 40 53
Width: 500
VWidth: 833
Flags: W
HStem: -35 73<284.762 374> 613 86<277.295 374>
VStem: 126 78<157.371 505.611>
LayerCount: 2
Fore
SplineSet
315 -35 m 6
 247 -35 126 11 126 332 c 4
 126 652 247 699 315 699 c 6
 374 699 l 5
 374 613 l 5
 372 613 369 613 353 613 c 4
 302 613 204 607 204 332 c 4
 204 59 305 38 353 38 c 6
 374 38 l 5
 374 -35 l 5
 315 -35 l 6
EndSplineSet
Validated: 1
EndChar

StartChar: parenright
Encoding: 41 41 54
Width: 500
VWidth: 833
Flags: W
HStem: -35 73<126 215.238> 613 86<126 222.705>
VStem: 296 78<157.371 505.611>
LayerCount: 2
Fore
SplineSet
185 -35 m 6
 126 -35 l 5
 126 38 l 5
 147 38 l 6
 195 38 296 59 296 332 c 0
 296 607 198 613 147 613 c 4
 131 613 128 613 126 613 c 5
 126 699 l 5
 185 699 l 6
 253 699 374 652 374 332 c 0
 374 11 253 -35 185 -35 c 6
EndSplineSet
Validated: 1
EndChar

StartChar: bracketleft
Encoding: 91 91 55
Width: 500
VWidth: 833
Flags: W
HStem: -79 82<214.277 374> 669 86<219.094 374>
VStem: 126 72<98.1707 565.969>
LayerCount: 2
Fore
SplineSet
315 -79 m 2
 277 -79 257 -82 179 -82 c 3
 134 -82 126 21 126 332 c 0
 126 343 126 354 126 365 c 0
 126 709 127 752 179 752 c 7
 185 752 310 755 315 755 c 6
 374 755 l 5
 374 669 l 5
 372 669 369 669 353 669 c 4
 337 669 267 665 244 665 c 7
 202 665 198 583 198 332 c 3
 198 64 201 2 244 2 c 3
 311 2 325 3 353 3 c 2
 374 3 l 1
 374 -79 l 1
 315 -79 l 2
EndSplineSet
Validated: 1
EndChar

StartChar: bracketright
Encoding: 93 93 56
Width: 500
VWidth: 833
Flags: W
HStem: -79 82<126 285.723> 669 86<126 280.906>
VStem: 302 72<98.1707 565.969>
LayerCount: 2
Fore
SplineSet
185 -79 m 2
 126 -79 l 1
 126 3 l 1
 147 3 l 2
 175 3 189 2 256 2 c 3
 299 2 302 64 302 332 c 3
 302 583 298 665 256 665 c 7
 233 665 163 669 147 669 c 4
 131 669 128 669 126 669 c 5
 126 755 l 5
 185 755 l 6
 190 755 315 752 321 752 c 7
 373 752 374 709 374 365 c 0
 374 354 374 343 374 332 c 0
 374 21 366 -82 321 -82 c 3
 243 -82 223 -79 185 -79 c 2
EndSplineSet
Validated: 1
EndChar

StartChar: backslash
Encoding: 92 92 57
Width: 500
VWidth: 833
Flags: W
HStem: 1 21G<309.043 416> 1 21G<309.043 416> 648 20G<84 187.076>
VStem: 84 332
LayerCount: 2
Fore
SplineSet
84 668 m 1xb0
 180 668 l 1
 416 1 l 1
 316 1 l 5
 84 668 l 1xb0
EndSplineSet
Validated: 1
EndChar

StartChar: bar
Encoding: 124 124 58
Width: 500
VWidth: 833
Flags: W
VStem: 213 75<-86 752>
LayerCount: 2
Fore
SplineSet
213 752 m 5
 288 752 l 1
 288 473 288 193 288 -86 c 1
 213 -86 l 5
 213 752 l 5
EndSplineSet
Validated: 1
EndChar

StartChar: slash
Encoding: 47 47 59
Width: 500
VWidth: 833
Flags: W
HStem: 1 21G<84 190.957> 1 21G<84 190.957> 648 20G<312.924 416>
VStem: 84 332
LayerCount: 2
Fore
SplineSet
416 668 m 1xb0
 184 1 l 5
 84 1 l 1
 320 668 l 1
 416 668 l 1xb0
EndSplineSet
Validated: 1
EndChar

StartChar: exclam
Encoding: 33 33 60
Width: 500
VWidth: 833
Flags: W
HStem: -1 159<198.567 303.074> 647 20G<203 299>
VStem: 170 160<27.9399 129.06> 203 96<226 667>
LayerCount: 2
Fore
SplineSet
170 78 m 3xe0
 170 119 210 158 251 158 c 3
 292 158 330 120 330 79 c 7
 330 38 293 -1 252 -1 c 3
 211 -1 170 37 170 78 c 3xe0
203 667 m 1xd0
 299 667 l 1
 299 226 l 1
 203 226 l 1
 203 667 l 1xd0
EndSplineSet
Validated: 1
EndChar

StartChar: one
Encoding: 49 49 61
AltUni2: 0000b9.ffffffff.0
Width: 500
VWidth: 833
Flags: W
HStem: 1 77<84 207 297 416> 648 20G<206 297>
VStem: 207 90<78 565>
LayerCount: 2
Fore
SplineSet
84 598 m 1
 206 667 l 1
 297 668 l 1
 297 78 l 1
 416 78 l 1
 416 1 l 1
 84 1 l 1
 84 78 l 1
 207 78 l 1
 206 565 l 5
 84 496 l 5
 84 598 l 1
EndSplineSet
Validated: 1
EndChar

StartChar: two
Encoding: 50 50 62
AltUni2: 0000b2.ffffffff.0
Width: 500
VWidth: 833
Flags: W
HStem: 0 87<202 409> 582 86<195.497 304.899>
VStem: 322 94<383.499 564.804>
LayerCount: 2
Fore
SplineSet
84 0 m 5
 84 87 l 5
 216 225 322 370 322 477 c 31
 322 575 288 582 251 582 c 7
 201 582 182 544 84 462 c 5
 84 567 l 5
 158 629 185 668 249 668 c 7
 337 668 416 595 416 483 c 31
 416 377 331 249 202 87 c 5
 409 87 l 5
 409 0 l 5
 84 0 l 5
EndSplineSet
Validated: 1
EndChar

StartChar: three
Encoding: 51 51 63
AltUni2: 0000b3.ffffffff.0
Width: 500
VWidth: 833
Flags: W
HStem: 0 72<209.839 304.408> 582 85<190.368 306.609>
VStem: 336 78<104.67 247.585 415.121 552.023>
LayerCount: 2
Fore
SplineSet
337 334 m 5
 383 296 414 232 414 179 c 4
 414 82 344 0 262 0 c 4
 199 0 125 60 85 145 c 5
 168 145 l 5
 191 102 229 72 259 72 c 4
 300 72 336 118 336 170 c 4
 336 238 297 268 256 338 c 5
 297 395 338 428 338 486 c 4
 338 545 301 582 243 582 c 4
 217 582 185 562 166 534 c 5
 166 534 110 534 84 534 c 5
 85 535 150 667 243 667 c 4
 337 667 416 578 416 471 c 4
 416 429 383 371 337 334 c 5
EndSplineSet
Validated: 1
EndChar

StartChar: four
Encoding: 52 52 64
Width: 500
VWidth: 833
Flags: W
HStem: 0 21G<246.098 338> 0 21G<246.098 338> 205 82<172 247 337 416> 648 20G<232.759 337>
VStem: 250 87<1 205 287 491>
LayerCount: 2
Fore
SplineSet
84 210 m 1x78
 84 287 l 1
 241 668 l 1
 337 668 l 1
 337 287 l 1
 416 287 l 5
 416 205 l 5
 337 205 l 1
 337 188 337 174 337 161 c 0
 337 104 337 70 338 1 c 1
 246 0 l 1
 247 205 l 1
 84 205 l 1
 84 210 l 1x78
247 287 m 1
 250 491 l 1
 172 287 l 1
 247 287 l 1
EndSplineSet
Validated: 1
EndChar

StartChar: five
Encoding: 53 53 65
Width: 500
VWidth: 833
Flags: W
HStem: 0 103<173.391 279.472> 323 106<198 281.263> 582 85<198 371>
VStem: 110 88<429 582> 318 98<143.071 284.592>
LayerCount: 2
Fore
SplineSet
416 219 m 3
 416 110 335 0 231 0 c 3
 151 0 84 86 84 86 c 1
 131 164 l 1
 160 140 179 103 232 103 c 3
 266 103 318 137 318 222 c 3
 318 285 266 323 237 323 c 2
 110 323 l 1
 110 667 l 1
 371 667 l 1
 371 645 371 631 371 620 c 0
 371 599 371 594 371 582 c 1
 356 582 336 582 314 582 c 0
 270 582 221 582 198 582 c 1
 198 429 l 1
 246 429 l 2
 308 429 416 328 416 219 c 3
EndSplineSet
Validated: 1
EndChar

StartChar: seven
Encoding: 55 55 66
Width: 500
VWidth: 833
Flags: W
HStem: 0 21G<84 177.376> 0 21G<84 177.376> 582 85<84 304>
VStem: 84 332<563.02 582>
LayerCount: 2
Fore
SplineSet
84 0 m 1xb0
 304 582 l 1
 84 582 l 1
 84 667 l 1
 416 667 l 1
 170 0 l 1
 84 0 l 1xb0
EndSplineSet
Validated: 1
EndChar

StartChar: eight
Encoding: 56 56 67
Width: 500
VWidth: 833
Flags: W
HStem: 0 108<198.318 301.665> 302 146<203.84 285.303> 571 94<205.677 284.491>
VStem: 84 84<139.415 271.522> 112 80<459.542 558.554> 297 80<458.466 558.225> 332 84<140.235 271.549>
LayerCount: 2
Fore
SplineSet
332 204 m 4xf2
 332 262 295 302 250 302 c 4
 204 302 168 261 168 204 c 4
 168 146 206 108 250 108 c 4
 293 108 332 145 332 204 c 4xf2
297 508 m 4xec
 297 546 272 571 244 571 c 4
 215 571 192 544 192 508 c 4
 192 471 216 448 244 448 c 4
 272 448 297 470 297 508 c 4xec
112 508 m 4
 112 602 168 665 244 665 c 4
 320 665 377 601 377 508 c 4xec
 377 455 358 409 328 380 c 5
 381 349 416 286 416 204 c 4
 416 87 345 0 250 0 c 4
 156 0 84 86 84 204 c 4xf2
 84 282 116 344 165 376 c 5
 133 405 112 451 112 508 c 4
EndSplineSet
Validated: 1
EndChar

StartChar: zero
Encoding: 48 48 68
Width: 500
VWidth: 833
Flags: W
HStem: 0 97<193.874 301.178> 578 88<205.22 300.411>
VStem: 84 85<264.811 508.047> 332 84<152.455 416.023>
LayerCount: 2
Fore
SplineSet
84 343 m 0
 84 531 153 666 249 666 c 0
 356 666 416 549 416 343 c 0
 416 125 355 0 249 0 c 0
 143 0 84 122 84 343 c 0
314 532 m 1
 302 565 281 578 249 578 c 0
 190 578 169 510 169 348 c 0
 169 346 169 345 169 343 c 0
 169 339 169 336 169 332 c 0
 169 304 169 280 170 258 c 1
 314 532 l 1
331 422 m 1
 185 134 l 1
 197 105 217 97 249 97 c 0
 319 97 332 145 332 343 c 0
 332 372 332 399 331 422 c 1
EndSplineSet
Validated: 1
EndChar

StartChar: nine
Encoding: 57 57 69
Width: 500
VWidth: 833
Flags: W
HStem: 2 21G<200 267> 285 80<197.974 297.808> 558 110<197.811 300.943>
VStem: 84 85<394.512 529.121> 332 84<397.539 525.839>
LayerCount: 2
Fore
SplineSet
200 2 m 1
 200 2 161 28 128 54 c 1
 246 185 302 312 302 312 c 1
 295 300 279 285 249 285 c 3
 244 285 84 298 84 462 c 0
 84 579 154 668 249 668 c 0
 343 668 416 580 416 462 c 0
 416 290 334 168 200 2 c 1
169 462 m 0
 169 404 204 365 249 365 c 0
 295 365 332 405 332 462 c 0
 332 520 293 558 249 558 c 0
 206 558 169 521 169 462 c 0
EndSplineSet
Validated: 1
EndChar

StartChar: six
Encoding: 54 54 70
Width: 500
VWidth: 833
Flags: W
HStem: 0 108<198.318 301.665> 302 80<210.598 302.04> 647 20G<232.5 300>
VStem: 84 84<141.356 266.021> 332 84<140.235 271.059>
LayerCount: 2
Fore
SplineSet
332 204 m 0
 332 262 295 302 250 302 c 0
 204 302 168 261 168 204 c 0
 168 146 206 108 250 108 c 0
 293 108 332 145 332 204 c 0
300 667 m 1
 300 667 339 638 372 612 c 1
 254 481 198 354 198 354 c 1
 224 366 239 380 269 382 c 0
 271 382 275 382 277 382 c 0
 345 382 416 316 416 204 c 0
 416 87 345 0 250 0 c 0
 156 0 84 86 84 204 c 2
 84 205 l 1
 84 213 84 220 84 228 c 0
 84 440 165 499 300 667 c 1
EndSplineSet
Validated: 1
EndChar

StartChar: numbersign
Encoding: 35 35 71
Width: 500
VWidth: 833
Flags: W
HStem: 1 21G<142 203.299 278 338.866> 1 21G<142 203.299 278 338.866> 232 71<84 152 221 288> 232 60<221 288 350 416> 424 58<84 162 232 298 358 416> 648 20G<172.032 244 308.032 367>
VStem: 278 60<1 162.7> 309 58<524.111 668>
LayerCount: 2
Fore
SplineSet
348 232 m 1x1d
 338 1 l 1
 278 1 l 1
 288 232 l 1xae
 217 232 l 1x1e
 202 1 l 1
 142 1 l 1
 152 232 l 1
 84 232 l 1
 84 303 l 1xae
 156 301 l 1
 162 424 l 1
 84 424 l 1
 84 482 l 1
 164 482 l 1
 173 668 l 1
 244 668 l 1
 232 482 l 1
 300 482 l 1
 309 668 l 1
 367 668 l 1
 358 483 l 1
 416 483 l 1
 416 423 l 1
 356 423 l 1
 350 294 l 1
 416 292 l 1
 416 232 l 1
 348 232 l 1x1d
292 296 m 1
 298 423 l 1
 228 424 l 1
 221 298 l 1
 292 296 l 1
EndSplineSet
Validated: 1
EndChar

StartChar: dollar
Encoding: 36 36 72
Width: 500
VWidth: 833
Flags: W
HStem: 0 21G<217 282> 0 21G<217 282> 52 82<282 313.006> 545 69<187.105 217> 647 20G<217 282>
VStem: 84 91<443.604 534.943> 217 65<0 55 153 273 424 531 609.558 667> 327 89<145.76 233.301>
LayerCount: 2
Fore
SplineSet
408 466 m 5xbf
 318 466 l 5
 318 466 309 507 282 531 c 5
 282 379 l 5
 346 338 416 292 416 212 c 4
 416 157 384 64 282 52 c 5
 282 0 l 5
 217 0 l 5
 217 55 l 5
 104 83 91 218 91 218 c 5
 189 218 l 5
 189 218 193 178 217 153 c 5
 217 317 l 5
 153 357 84 404 84 476 c 4
 84 543 144 601 217 614 c 5
 217 667 l 5
 282 667 l 5
 282 612 l 5
 384 589 408 466 408 466 c 5xbf
217 545 m 5
 195 538 175 521 175 492 c 4
 175 465 192 444 217 424 c 5
 217 545 l 5
282 134 m 5
 321 142 327 180 327 200 c 4
 327 208 326 213 326 213 c 6
 326 235 308 254 282 273 c 5
 282 134 l 5
EndSplineSet
Validated: 1
EndChar

StartChar: percent
Encoding: 37 37 73
Width: 500
VWidth: 833
Flags: W
HStem: 0 65<278.1 355.234> 181 59<277.22 353.894> 425 65<148.1 224.756> 606 59<147.951 223.894>
VStem: 87 50<500.499 595.633> 217 50<75.4993 149.531> 235 50<512.276 595.765> 365 50<75.2204 170.765>
LayerCount: 2
Fore
SplineSet
365 122 m 0xfd
 365 157 343 181 316 181 c 0
 288 181 267 156 267 122 c 0
 267 88 290 65 316 65 c 0
 342 65 365 86 365 122 c 0xfd
235 547 m 0xfb
 235 582 213 606 186 606 c 0
 158 606 137 581 137 547 c 0
 137 513 160 490 186 490 c 0
 212 490 235 511 235 547 c 0xfb
87 547 m 0
 87 617 129 665 186 665 c 0
 243 665 285 617 285 547 c 0xfb
 285 535 283 523 281 512 c 1
 342 668 l 1
 416 668 l 1
 237 195 l 1
 255 223 283 240 316 240 c 0
 373 240 415 192 415 122 c 0
 415 52 373 0 316 0 c 0
 260 0 217 52 217 122 c 0
 217 132 217 141 219 150 c 1
 162 1 l 1
 84 1 l 1
 267 474 l 1xfd
 249 444 220 425 186 425 c 0
 130 425 87 477 87 547 c 0
EndSplineSet
Validated: 1
EndChar

StartChar: question
Encoding: 63 63 74
Width: 500
VWidth: 833
Flags: W
HStem: -1 159<198.567 303.074> 585 82<197.886 316.894>
VStem: 170 160<27.9399 129.06> 205 89<216.036 367.484> 332 84<463.553 569.405>
LayerCount: 2
Fore
SplineSet
170 78 m 7xe8
 170 119 210 158 251 158 c 7
 292 158 330 120 330 79 c 7
 330 38 293 -1 252 -1 c 7
 211 -1 170 37 170 78 c 7xe8
171 526 m 6
 84 528 l 6
 84 528 147 667 252 667 c 7
 342 667 416 613 416 506 c 7
 416 437 294 387 294 316 c 28
 294 265 295 216 295 216 c 5
 202 216 l 5
 202 216 205 265 205 316 c 28xd8
 205 385 332 454 332 506 c 7
 332 566 310 585 252 585 c 7
 195 585 171 526 171 526 c 6
EndSplineSet
Validated: 1
EndChar

StartChar: braceleft
Encoding: 123 123 75
Width: 500
VWidth: 833
Flags: W
HStem: -35 73<305.293 374> 613 86<302.657 374>
VStem: 126 91<305.981 363.283> 204 78<63.6965 276.242 393.989 591.61> 204 13<251 332>
LayerCount: 2
Fore
SplineSet
314 -35 m 6xd0
 251 -35 211 -22 204 251 c 5xd0
 204 268 126 314 126 332 c 7xe0
 126 360 204 399 205 423 c 5
 214 673 252 699 314 699 c 6
 374 699 l 5
 374 613 l 5
 372 613 369 613 353 613 c 4
 346 613 341 613 336 613 c 0
 303 613 287 601 282 423 c 5xd0
 281 402 217 360 217 332 c 7xe0
 217 311 281 269 282 251 c 5
 288 42 307 38 349 38 c 0
 351 38 351 38 353 38 c 6
 374 38 l 5
 374 -35 l 5
 314 -35 l 6xd0
EndSplineSet
Validated: 1
EndChar

StartChar: braceright
Encoding: 125 125 76
Width: 500
VWidth: 833
Flags: W
HStem: -35 73<126 194.707> 613 86<126 197.343>
VStem: 218 78<63.6965 276.242 393.989 591.61> 283 91<305.981 363.283> 283 13<251 332>
LayerCount: 2
Fore
SplineSet
186 -35 m 6xe0
 126 -35 l 5
 126 38 l 5
 147 38 l 6
 149 38 149 38 151 38 c 0
 193 38 212 42 218 251 c 5xe0
 219 269 283 311 283 332 c 7xd0
 283 360 219 402 218 423 c 5xe0
 213 601 197 613 164 613 c 0
 159 613 154 613 147 613 c 4
 131 613 128 613 126 613 c 5
 126 699 l 5
 186 699 l 6
 248 699 286 673 295 423 c 5
 296 399 374 360 374 332 c 7xd0
 374 314 296 268 296 251 c 5
 289 -22 249 -35 186 -35 c 6xe0
EndSplineSet
Validated: 1
EndChar

StartChar: less
Encoding: 60 60 77
Width: 500
VWidth: 833
Flags: W
VStem: 84 332
LayerCount: 2
Fore
SplineSet
416 400 m 29
 416 308 l 29
 208 202 l 25
 416 86 l 29
 416 -4 l 29
 84 202 l 25
 416 400 l 29
EndSplineSet
Validated: 1
EndChar

StartChar: greater
Encoding: 62 62 78
Width: 500
VWidth: 833
Flags: W
HStem: 380 20G<84 117.535>
VStem: 84 332
LayerCount: 2
Fore
SplineSet
84 400 m 29
 416 202 l 25
 84 -4 l 29
 84 86 l 29
 292 202 l 25
 84 308 l 29
 84 400 l 29
EndSplineSet
Validated: 1
EndChar

StartChar: period
Encoding: 46 46 79
Width: 500
VWidth: 833
Flags: W
HStem: -1 159<198.567 303.074>
VStem: 170 160<27.9399 129.06>
LayerCount: 2
Fore
SplineSet
170 78 m 3
 170 119 210 158 251 158 c 3
 292 158 330 120 330 79 c 3
 330 38 293 -1 252 -1 c 3
 211 -1 170 37 170 78 c 3
EndSplineSet
Validated: 1
EndChar

StartChar: comma
Encoding: 44 44 80
Width: 500
VWidth: 833
Flags: W
HStem: -97 255<208.02 243>
VStem: 180 160<33.6116 129.06>
LayerCount: 2
Fore
SplineSet
180 78 m 4
 180 119 220 158 261 158 c 4
 302 158 340 120 340 79 c 4
 340 47 316 15 286 3 c 5
 243 -98 l 5
 160 -97 l 5
 197 33 l 5
 187 46 180 62 180 78 c 4
EndSplineSet
Validated: 1
EndChar

StartChar: quotesingle
Encoding: 39 39 81
Width: 500
VWidth: 833
Flags: W
HStem: 418 248
VStem: 210 78<418 514.833>
LayerCount: 2
Fore
SplineSet
194 666 m 5
 306 667 l 5
 288 418 l 5
 210 418 l 5
 194 666 l 5
EndSplineSet
Validated: 1
EndChar

StartChar: quotedbl
Encoding: 34 34 82
Width: 500
VWidth: 833
Flags: W
HStem: 418 248<93 172 327 405>
VStem: 93 79<418 514.833> 327 78<418 520.118>
LayerCount: 2
Fore
SplineSet
310 666 m 5
 422 667 l 5
 405 418 l 5
 327 418 l 5
 310 666 l 5
78 666 m 5
 190 667 l 5
 172 418 l 5
 93 418 l 5
 78 666 l 5
EndSplineSet
Validated: 1
EndChar

StartChar: colon
Encoding: 58 58 83
Width: 500
VWidth: 833
Flags: W
HStem: 15 158<198.567 303.074> 222 159<198.567 303.074>
VStem: 170 160<42.7997 143.752 250.94 352.06>
LayerCount: 2
Fore
SplineSet
170 301 m 3
 170 342 210 381 251 381 c 3
 292 381 330 343 330 302 c 3
 330 261 293 222 252 222 c 3
 211 222 170 260 170 301 c 3
170 93 m 3
 170 134 210 173 251 173 c 3
 292 173 330 136 330 95 c 3
 330 54 293 15 252 15 c 3
 211 15 170 52 170 93 c 3
EndSplineSet
Validated: 1
EndChar

StartChar: semicolon
Encoding: 59 59 84
Width: 500
VWidth: 833
Flags: W
HStem: 222 159<209.51 312.77>
VStem: 180 160<48.6108 142.752 250.94 352.06>
LayerCount: 2
Fore
SplineSet
180 92 m 0
 180 133 220 172 261 172 c 0
 302 172 340 135 340 94 c 0
 340 62 316 30 286 18 c 1
 243 -83 l 1
 160 -82 l 1
 197 48 l 1
 187 61 180 76 180 92 c 0
180 301 m 3
 180 342 220 381 261 381 c 3
 302 381 340 343 340 302 c 3
 340 261 304 222 263 222 c 3
 222 222 180 260 180 301 c 3
EndSplineSet
Validated: 1
EndChar

StartChar: plus
Encoding: 43 43 85
Width: 500
VWidth: 833
Flags: W
HStem: 238 89<84 207 295 416>
VStem: 207 88<72 238 327 472>
LayerCount: 2
Fore
SplineSet
207 472 m 1
 295 472 l 1
 295 327 l 1
 416 327 l 1
 416 238 l 1
 295 238 l 1
 295 72 l 1
 207 72 l 1
 207 238 l 1
 84 238 l 1
 84 327 l 1
 207 327 l 1
 207 472 l 1
EndSplineSet
Validated: 1
EndChar

StartChar: equal
Encoding: 61 61 86
Width: 500
VWidth: 833
Flags: W
HStem: 145 94<84 416> 330 94<84 416>
VStem: 84 332<145 239 330 424>
LayerCount: 2
Fore
SplineSet
84 239 m 1
 416 239 l 1
 416 145 l 1
 84 145 l 1
 84 239 l 1
84 424 m 1
 416 424 l 1
 416 330 l 1
 84 330 l 1
 84 424 l 1
EndSplineSet
Validated: 1
EndChar

StartChar: hyphen
Encoding: 45 45 87
Width: 500
VWidth: 833
Flags: W
HStem: 238 89<84 416>
VStem: 84 332<238 327>
LayerCount: 2
Fore
SplineSet
416 327 m 1
 416 238 l 1
 84 238 l 1
 84 327 l 1
 416 327 l 1
EndSplineSet
Validated: 1
EndChar

StartChar: underscore
Encoding: 95 95 88
Width: 500
VWidth: 833
Flags: W
HStem: -88 88<44 456>
LayerCount: 2
Fore
SplineSet
456 0 m 1
 456 -88 l 1
 44 -88 l 1
 44 0 l 1
 456 0 l 1
EndSplineSet
Validated: 1
EndChar

StartChar: asterisk
Encoding: 42 42 89
Width: 500
VWidth: 833
Flags: W
VStem: 225 46<72 241 330 472>
LayerCount: 2
Fore
SplineSet
225 472 m 1
 271 472 l 1
 271 327 l 1
 383 420 l 1
 416 375 l 1
 301 286 l 1
 410 218 l 1
 374 170 l 1
 271 243 l 1
 271 72 l 1
 225 72 l 1
 225 241 l 1
 122 163 l 1
 87 209 l 1
 198 285 l 1
 84 364 l 1
 116 411 l 1
 225 330 l 1
 225 472 l 1
EndSplineSet
Validated: 1
EndChar

StartChar: asciicircum
Encoding: 94 94 90
Width: 500
VWidth: 833
Flags: W
HStem: 392 276
VStem: 84 332
LayerCount: 2
Fore
SplineSet
84 392 m 29
 247 668 l 29
 416 392 l 29
 326 392 l 29
 248 532 l 29
 178 392 l 29
 84 392 l 29
EndSplineSet
Validated: 1
EndChar

StartChar: ampersand
Encoding: 38 38 91
Width: 500
VWidth: 833
Flags: W
HStem: 0 84<174.619 231.037> 583 85<182.281 254.269>
VStem: 84 74<95.7382 280.468 466.258 556.747> 270 80<460.074 569.372> 332 77<0 78.9242>
LayerCount: 2
Fore
SplineSet
270 511 m 0xf0
 270 548 248 583 220 583 c 0
 191 583 164 546 164 509 c 0
 164 473 190 454 218 433 c 1
 245 457 270 472 270 511 c 0xf0
357 176 m 1
 366 140 409 21 409 0 c 1
 332 0 l 1xe8
 332 12 315 72 310 100 c 1
 287 37 272 0 214 0 c 0
 125 0 84 86 84 194 c 0
 84 282 112 338 155 382 c 1
 116 411 84 454 84 517 c 0
 84 605 144 668 220 668 c 0
 296 668 350 603 350 528 c 0
 350 456 300 401 270 372 c 1
 298 324 292 333 322 270 c 1
 340 297 367 370 367 370 c 1
 416 302 l 5
 416 302 369 197 357 176 c 1
275 202 m 1
 275 202 237 281 215 322 c 1
 181 287 158 261 158 193 c 3
 158 146 168 84 200 84 c 0
 232 84 257 151 275 202 c 1
EndSplineSet
Validated: 1
EndChar

StartChar: at
Encoding: 64 64 92
Width: 500
VWidth: 833
Flags: W
HStem: 1 65<243.142 380.374> 130 61<269.106 332.17> 465 60<267.514 333.617> 604 64<248.032 323.075>
VStem: 84 54<210.513 440.179> 194 57<208.837 450.169> 347 69<213.363 454.707>
LayerCount: 2
Fore
SplineSet
347 503 m 5
 341 535 324 604 301 604 c 4
 219 604 138 441 138 326 c 7
 138 214 204 66 302 66 c 4
 328 66 366 72 407 99 c 6
 413 103 l 5
 413 42 l 5
 408 37 399 27 357 15 c 4
 329 7 313 1 302 1 c 4
 170 1 84 220 84 326 c 7
 84 467 168 668 301 668 c 4
 342 668 356 645 375 612 c 4
 413 546 416 399 416 345 c 6
 416 326 l 6
 416 266 389 130 301 130 c 4
 226 130 194 218 194 326 c 7
 194 439 223 525 301 525 c 4
 332 525 324 521 338 510 c 4
 340 508 344 505 347 503 c 5
301 465 m 4
 256 465 250 394 250 352 c 0
 250 340 251 330 251 326 c 4
 251 324 251 322 251 320 c 0
 251 288 253 191 301 191 c 4
 341 191 347 251 347 291 c 0
 347 309 346 322 346 326 c 4
 346 334 347 347 347 362 c 0
 347 405 342 465 301 465 c 4
EndSplineSet
Validated: 1
EndChar

StartChar: asciitilde
Encoding: 126 126 93
Width: 500
VWidth: 833
Flags: W
HStem: 186 88<276.359 379.235> 268 89<122.636 224.641>
VStem: 84 332
LayerCount: 2
Fore
SplineSet
416 331 m 1xa0
 416 242 l 1
 416 242 367 186 333 186 c 27xa0
 267 186 234 268 168 268 c 27
 133 268 84 211 84 211 c 1
 84 299 l 1
 84 299 133 357 168 357 c 27x60
 234 357 267 274 333 274 c 27
 367 274 416 331 416 331 c 1xa0
EndSplineSet
Validated: 1
EndChar

StartChar: grave
Encoding: 96 96 94
Width: 500
VWidth: 833
Flags: W
HStem: 418 249<251 282>
VStem: 171 158
LayerCount: 2
Fore
SplineSet
171 666 m 1
 282 667 l 1
 329 418 l 5
 251 418 l 5
 171 666 l 1
EndSplineSet
Validated: 1
EndChar

StartChar: exclamdown
Encoding: 161 161 159
Width: 500
VWidth: 833
Flags: W
HStem: -1 21G<203 299> 508 159<198.567 303.074>
VStem: 170 160<536.94 638.06> 203 96<-1 440>
LayerCount: 2
Fore
SplineSet
170 588 m 3xe0
 170 629 211 667 252 667 c 3
 293 667 330 628 330 587 c 7
 330 546 292 508 251 508 c 3
 210 508 170 547 170 588 c 3xe0
203 -1 m 1xd0
 203 440 l 1
 299 440 l 1
 299 -1 l 1
 203 -1 l 1xd0
EndSplineSet
Validated: 1
EndChar

StartChar: brokenbar
Encoding: 166 166 164
Width: 500
VWidth: 833
Flags: W
VStem: 213 75<-86 325 408 752>
LayerCount: 2
Fore
SplineSet
288 752 m 9
 288 408 l 1
 213 408 l 1
 213 752 l 1
 288 752 l 9
288 325 m 5
 288 -86 l 1
 213 -86 l 1
 213 325 l 1
 288 325 l 5
EndSplineSet
Validated: 1
EndChar

StartChar: dieresis
Encoding: 168 168 166
Width: 500
VWidth: 833
Flags: W
HStem: 489 95<142.954 219.783 280.894 357.723>
VStem: 133 96<499.274 574.448> 271 96<498.894 575.444>
LayerCount: 2
Fore
SplineSet
271 537 m 7
 271 561 295 585 319 585 c 7
 344 585 367 562 367 538 c 7
 367 514 345 489 320 489 c 7
 296 489 271 513 271 537 c 7
133 537 m 7
 133 561 157 584 182 584 c 7
 206 584 229 562 229 538 c 7
 229 514 207 489 183 489 c 7
 158 489 133 513 133 537 c 7
EndSplineSet
Validated: 1
EndChar

StartChar: degree
Encoding: 176 176 173
Width: 500
VWidth: 833
Flags: W
HStem: 538 63<162.764 252.881> 726 62<162.764 252.881>
VStem: 86 61<616.522 709.763> 268 61<616.047 711.661>
LayerCount: 2
Fore
SplineSet
147 663 m 0
 147 628 175 601 208 601 c 0
 241 601 268 628 268 663 c 0
 268 698 241 726 208 726 c 0
 175 726 147 698 147 663 c 0
86 663 m 0
 86 732 141 788 208 788 c 0
 275 788 329 732 329 663 c 0
 329 594 275 538 208 538 c 0
 141 538 86 594 86 663 c 0
EndSplineSet
Validated: 1
EndChar

StartChar: plusminus
Encoding: 177 177 174
Width: 500
VWidth: 833
Flags: W
HStem: 108 94<84 416> 388 88<84 207 295 416>
VStem: 207 88<286 388 476 580>
LayerCount: 2
Fore
SplineSet
84 202 m 1
 416 202 l 1
 416 108 l 1
 84 108 l 1
 84 202 l 1
207 580 m 1
 295 580 l 1
 295 476 l 1
 416 476 l 1
 416 388 l 1
 295 388 l 1
 295 286 l 1
 207 286 l 1
 207 388 l 1
 84 388 l 1
 84 476 l 1
 207 476 l 1
 207 580 l 1
EndSplineSet
Validated: 1
EndChar

StartChar: acute
Encoding: 180 180 175
Width: 500
VWidth: 833
Flags: W
HStem: 487 181<222 244>
VStem: 166 168
LayerCount: 2
Fore
SplineSet
222 668 m 1
 334 668 l 1
 244 487 l 1
 166 487 l 1
 222 668 l 1
EndSplineSet
Validated: 1
EndChar

StartChar: cedilla
Encoding: 184 184 179
Width: 500
VWidth: 833
Flags: W
HStem: -171 34<212.622 280.326>
VStem: 282 38<-135.023 -91.3455>
LayerCount: 2
Fore
SplineSet
320 -111 m 0
 320 -127 311 -171 243 -171 c 0
 218 -171 197 -156 182 -143 c 0
 179 -141 179 -140 171 -133 c 1
 196 -105 l 1
 204 -113 205 -113 209 -117 c 0
 225 -131 232 -137 243 -137 c 0
 264 -137 282 -136 282 -111 c 0
 282 -99 247 -82 235 -76 c 0
 230 -74 226 -72 226 -67 c 2
 226 -66 l 1
 244 4 l 1
 248 4 l 1
 278 4 l 1
 284 4 l 1
 270 -52 l 1
 285 -60 320 -81 320 -111 c 0
EndSplineSet
Validated: 1
EndChar

StartChar: onehalf
Encoding: 189 189 181
Width: 500
Flags: W
HStem: 0 21G<119 163.562> 0 21G<119 163.562> 95 43<338 442> 386 43<322.522 393.83> 441 42<55 103 139 187>
VStem: 103 36<483 746> 279 163<95 138 326 392> 398 47<264.475 384.456>
LayerCount: 2
Fore
SplineSet
279 95 m 1x3e
 279 138 l 1x3e
 345 207 398 280 398 334 c 27x3d
 398 383 380 386 362 386 c 3
 337 386 328 367 279 326 c 1
 279 378 l 1x3e
 316 409 330 429 362 429 c 3
 406 429 445 392 445 336 c 27x3d
 445 283 402 219 338 138 c 1
 442 138 l 1
 442 95 l 1
 279 95 l 1x3e
55 764 m 1
 103 802 l 1
 139 802 l 1
 139 483 l 1
 187 483 l 1
 187 441 l 1
 55 441 l 1
 55 483 l 1
 103 483 l 1
 103 746 l 1
 55 709 l 1
 55 764 l 1
349 833 m 1
 159 0 l 1
 119 0 l 1xbc
 309 833 l 1
 349 833 l 1
EndSplineSet
Validated: 1
EndChar

StartChar: threequarters
Encoding: 190 190 182
Width: 500
Flags: W
HStem: 0 21G<159 203.562> 0 21G<159 203.562> 200 43<331 361 395 427> 442 36<128.064 188.356> 733 42<116.575 191.748>
VStem: 199 39<485.352 579.13 638.45 725.074> 361 34<89 200 243 352 427.152 449>
LayerCount: 2
Fore
SplineSet
199 609 m 1x3e
 222 590 238 557 238 531 c 0
 238 483 203 442 162 442 c 0
 130 442 94 472 74 514 c 1
 115 514 l 1
 127 492 145 478 160 478 c 0
 180 478 199 501 199 527 c 0
 199 561 179 576 159 611 c 1
 179 639 199 656 199 685 c 0
 199 715 181 733 152 733 c 0
 139 733 124 723 114 709 c 1
 114 709 86 709 73 709 c 1
 73 709 106 775 152 775 c 0
 199 775 239 732 239 678 c 0
 239 657 222 627 199 609 c 1x3e
389 833 m 1
 199 0 l 1
 159 0 l 1xbe
 349 833 l 1
 389 833 l 1
295 200 m 1
 295 243 l 1
 357 449 l 1
 395 449 l 1
 395 243 l 1
 427 243 l 1
 427 200 l 1
 395 200 l 1
 395 192 395 182 395 175 c 0
 395 145 397 125 397 89 c 1
 361 89 l 1
 361 200 l 1
 295 200 l 1
361 243 m 1
 361 352 l 1
 331 243 l 1
 361 243 l 1
EndSplineSet
Validated: 1
EndChar

StartChar: questiondown
Encoding: 191 191 183
Width: 500
VWidth: 833
Flags: W
HStem: -1 82<183.699 302.845> 508 160<197.8 300.49>
VStem: 84 86<96.0751 203.845> 170 160<536.94 638.49> 206 89<298.516 449.964>
LayerCount: 2
Fore
SplineSet
330 588 m 3xd0
 330 547 290 508 249 508 c 3
 208 508 170 546 170 587 c 3
 170 628 207 668 248 668 c 3
 289 668 330 629 330 588 c 3xd0
329 138 m 2
 416 138 l 2
 416 138 353 -1 248 -1 c 3
 158 -1 84 53 84 160 c 3
 84 229 206 279 206 350 c 24
 206 401 206 450 206 450 c 1
 298 450 l 1
 298 450 295 401 295 350 c 24
 295 281 170 212 170 160 c 3xe8
 170 100 190 81 248 81 c 3
 305 81 329 138 329 138 c 2
EndSplineSet
Validated: 1
EndChar

StartChar: diaeresiscomb
Encoding: 256 776 248
Width: 500
VWidth: 833
Flags: W
HStem: 489 95<142.954 219.783 280.894 357.723>
VStem: 133 96<499.274 574.448> 271 96<498.894 575.444>
LayerCount: 2
Fore
SplineSet
271 537 m 7
 271 561 295 585 319 585 c 7
 344 585 367 562 367 538 c 7
 367 514 345 489 320 489 c 7
 296 489 271 513 271 537 c 7
133 537 m 7
 133 561 157 584 182 584 c 7
 206 584 229 562 229 538 c 7
 229 514 207 489 183 489 c 7
 158 489 133 513 133 537 c 7
EndSplineSet
Validated: 1
EndChar

StartChar: dotlessi
Encoding: 257 305 249
Width: 500
VWidth: 833
Flags: W
HStem: 1 83<289 416> 298 83<84 208>
VStem: 208 83<84 298>
LayerCount: 2
Fore
SplineSet
84 298 m 1
 84 381 l 1
 249 381 l 2
 272 381 291 362 291 339 c 0
 290 151 289 96 289 84 c 1
 416 84 l 1
 416 1 l 1
 247 1 l 2
 224 1 205 19 205 42 c 0
 208 298 l 1
 84 298 l 1
EndSplineSet
Validated: 1
EndChar

StartChar: acutecomb
Encoding: 258 769 250
Width: 500
VWidth: 833
Flags: W
HStem: 487 181<222 244>
VStem: 166 168
LayerCount: 2
Fore
SplineSet
222 668 m 1
 334 668 l 1
 244 487 l 1
 166 487 l 1
 222 668 l 1
EndSplineSet
Validated: 1
EndChar

StartChar: gravecomb
Encoding: 259 768 253
Width: 500
VWidth: 833
Flags: W
HStem: 487 181<256 278>
VStem: 166 168
LayerCount: 2
Fore
SplineSet
278 668 m 1
 334 487 l 1
 256 487 l 1
 166 668 l 1
 278 668 l 1
EndSplineSet
Validated: 1
EndChar

StartChar: fraction
Encoding: 260 8260 254
Width: 500
VWidth: 833
Flags: W
HStem: 1 21G<84 190.957> 1 21G<84 190.957> 648 20G<312.924 416>
VStem: 84 332
LayerCount: 2
Fore
SplineSet
416 668 m 1xb0
 184 1 l 5
 84 1 l 1
 320 668 l 1
 416 668 l 1xb0
EndSplineSet
Validated: 1
EndChar

StartChar: Scaron
Encoding: 160 352 255
Width: 500
Flags: W
HStem: 0 97<219.506 309.346> 587 80<191.981 282.414>
VStem: 84 91<465.922 569.707> 327 89<111.583 214.122>
LayerCount: 2
Fore
SplineSet
88 898 m 25
 182 898 l 25
 248 828 l 5
 330 898 l 25
 420 898 l 25
 248 727 l 5
 88 898 l 25
EndSplineSet
Refer: 31 83 N 1 0 0 1 0 0 3
Validated: 1
EndChar

StartChar: circumflexcmb
Encoding: 261 770 257
Width: 500
VWidth: 833
Flags: W
HStem: 392 160
VStem: 84 332
LayerCount: 2
Fore
SplineSet
84 392 m 25
 247 552 l 25
 416 392 l 25
 326 392 l 25
 248 455 l 29
 178 392 l 25
 84 392 l 25
EndSplineSet
Validated: 1
EndChar

StartChar: tildecomb
Encoding: 262 771 258
Width: 500
VWidth: 833
Flags: W
HStem: 186 88<276.359 379.235> 268 89<122.636 224.641>
VStem: 84 332
LayerCount: 2
Fore
SplineSet
416 331 m 1xa0
 416 242 l 1
 416 242 367 186 333 186 c 27xa0
 267 186 234 268 168 268 c 27
 133 268 84 211 84 211 c 1
 84 299 l 1
 84 299 133 357 168 357 c 27x60
 234 357 267 274 333 274 c 27
 367 274 416 331 416 331 c 1xa0
EndSplineSet
Validated: 1
EndChar

StartChar: cedillacmb
Encoding: 263 807 259
Width: 500
VWidth: 833
Flags: W
HStem: -171 34<212.622 280.326> -20 20G<238.545 284> -20 20G<238.545 284>
VStem: 282 38<-135.023 -91.3455>
LayerCount: 2
Fore
SplineSet
320 -111 m 0xd0
 320 -127 311 -171 243 -171 c 0
 218 -171 197 -156 182 -143 c 0
 179 -141 179 -140 171 -133 c 1
 196 -105 l 1
 204 -113 205 -113 209 -117 c 0
 225 -131 232 -137 243 -137 c 0
 264 -137 282 -136 282 -111 c 0
 282 -99 247 -82 235 -76 c 0
 230 -74 226 -72 226 -67 c 2
 226 -66 l 1
 244 0 l 5
 248 0 l 5
 278 0 l 5
 284 0 l 5
 270 -52 l 1
 285 -60 320 -81 320 -111 c 0xd0
EndSplineSet
Validated: 1
EndChar

StartChar: ringcmb
Encoding: 264 778 260
Width: 500
VWidth: 833
Flags: W
HStem: 538 63<204.764 295.236> 726 62<204.764 295.236>
VStem: 128 61<616.522 709.763> 311 61<616.522 709.763>
LayerCount: 2
Fore
SplineSet
189 663 m 0
 189 628 217 601 250 601 c 0
 283 601 311 628 311 663 c 0
 311 698 283 726 250 726 c 0
 217 726 189 698 189 663 c 0
128 663 m 0
 128 732 183 788 250 788 c 0
 317 788 372 732 372 663 c 0
 372 594 317 538 250 538 c 0
 183 538 128 594 128 663 c 0
EndSplineSet
Validated: 1
EndChar

StartChar: acutedblnosp
Encoding: 265 779 261
Width: 500
VWidth: 833
Flags: W
HStem: 487 181<131 152 314 336>
LayerCount: 2
Fore
SplineSet
314 668 m 5
 426 668 l 5
 336 487 l 5
 258 487 l 5
 314 668 l 5
131 668 m 5
 242 668 l 5
 152 487 l 5
 74 487 l 5
 131 668 l 5
EndSplineSet
Validated: 1
EndChar

StartChar: onequarter
Encoding: 266 188 262
Width: 500
Flags: HW
HStem: 1 21G<143 187.567> 1 21G<143 187.567> 200 43<303 333 367 399> 441 42<79 127 163 211>
VStem: 127 36<483 746> 333 34<89 200 243 352 427.152 449>
LayerCount: 2
Fore
SplineSet
84 764 m 1x3c
 132 802 l 1
 168 802 l 1
 168 483 l 1
 216 483 l 1
 216 441 l 1
 84 441 l 1
 84 483 l 1
 132 483 l 1
 132 746 l 1
 84 709 l 1
 84 764 l 1x3c
378 833 m 1
 188 0 l 1
 148 0 l 1xbc
 338 833 l 1
 378 833 l 1
284 200 m 1
 284 243 l 1
 346 449 l 1
 384 449 l 1
 384 243 l 1
 416 243 l 1
 416 200 l 1
 384 200 l 1
 384 192 384 182 384 175 c 0
 384 145 386 125 386 89 c 1
 350 89 l 1
 350 200 l 1
 284 200 l 1
350 243 m 1
 350 352 l 1
 320 243 l 1
 350 243 l 1
EndSplineSet
Validated: 1
EndChar
